<svg width="30" height="30" viewBox="0 0 30 30" fill="none" xmlns="http://www.w3.org/2000/svg">
<path d="M28.7755 26.129H9.65571L10.0641 25.0819C10.2392 24.6329 10.2906 24.09 10.2067 23.579L9.80816 21.1539L27.5529 19.6965C28.2257 19.6423 28.7755 18.7258 28.7755 17.6613V4.83871C28.7755 3.77419 28.2245 2.90323 27.551 2.90323H6.80755L6.56816 1.44871C6.49996 1.03386 6.34657 0.666537 6.13206 0.404347C5.91754 0.142158 5.65403 -6.11443e-05 5.38286 1.97203e-08H1.22449C0.899735 1.97203e-08 0.588281 0.203916 0.358645 0.56689C0.129008 0.929864 0 1.42216 0 1.93548C0 2.44881 0.129008 2.9411 0.358645 3.30408C0.588281 3.66705 0.899735 3.87097 1.22449 3.87097H4.43633L7.70571 23.7532L6.42 27.0484C6.30564 27.3416 6.2429 27.6777 6.23827 28.0221C6.23364 28.3664 6.28729 28.7065 6.39367 29.0071C6.49962 29.3081 6.65453 29.5588 6.84237 29.7334C7.0302 29.9079 7.24414 30 7.46204 30H28.7755C29.1003 30 29.4117 29.7961 29.6414 29.4331C29.871 29.0701 30 28.5778 30 28.0645C30 27.5512 29.871 27.0589 29.6414 26.6959C29.4117 26.3329 29.1003 26.129 28.7755 26.129Z" fill="white"/>
</svg>
